<?xml version="1.0" encoding="UTF-8"?>
<svg version="1.1" xmlns="http://www.w3.org/2000/svg" width="100" height="100">
<path d="M0 0 C0.495 0.495 0.495 0.495 1 1 C0.8665836 7.53740377 -1.8465414 11.10984232 -6 16 C-4.06629992 18.12856908 -2.12827941 20.2529021 -0.1875 22.375 C0.35970703 22.97828125 0.90691406 23.5815625 1.47070312 24.203125 C2.00244141 24.78320312 2.53417969 25.36328125 3.08203125 25.9609375 C3.56905518 26.49509277 4.0560791 27.02924805 4.55786133 27.57958984 C6.14742726 29.23454469 6.14742726 29.23454469 9 31 C8.67 32.32 8.34 33.64 8 35 C3.82303644 34.79609497 2.22664488 34.2057378 -0.921875 31.34765625 C-1.87905225 30.26522853 -2.82156426 29.16967891 -3.75 28.0625 C-4.23082031 27.51142578 -4.71164063 26.96035156 -5.20703125 26.39257812 C-6.47878931 24.93483873 -7.74001323 23.46792577 -9 22 C-9.66 21.34 -10.32 20.68 -11 20 C-11.61875 20.66 -12.2375 21.32 -12.875 22 C-15 24 -15 24 -17 24 C-17 24.66 -17 25.32 -17 26 C-16.01 25.34 -15.02 24.68 -14 24 C-11.3125 24.375 -11.3125 24.375 -9 25 C-9.36911958 27.67611698 -9.84855563 28.8431469 -11.75 30.8125 C-14.71143547 32.37547983 -15.80590397 31.8981963 -19 31 C-20.96876871 30.04085627 -22.90684171 29.0166077 -24.8125 27.9375 C-25.78832031 27.38964844 -26.76414062 26.84179688 -27.76953125 26.27734375 C-28.50558594 25.85582031 -29.24164063 25.43429688 -30 25 C-26.67887905 29.33317852 -23.3427268 33.6577385 -19.875 37.875 C-19.43929687 38.40867188 -19.00359375 38.94234375 -18.5546875 39.4921875 C-14.39887316 43.5227009 -9.87710594 44.67507697 -4.3125 45.625 C2.79903418 46.89951709 2.79903418 46.89951709 5 48 C4.67 49.32 4.34 50.64 4 52 C-8.6187335 51.43439989 -16.28012247 50.54484394 -25.15234375 41.15625 C-27 39 -27 39 -29 36 C-32.03476409 37.13803653 -34.84666858 38.45569408 -37.6875 40 C-42.26644543 42.34638121 -46.94899357 43.21336785 -52 44 C-51.45719303 41.67086462 -50.86239733 39.69421629 -49.875 37.5 C-48.8763526 34.6467217 -49.06643196 33.80070412 -50 31 C-51.42602548 25.74698777 -51.42602548 25.74698777 -49.55859375 22.47265625 C-48.85863281 21.67730469 -48.15867188 20.88195312 -47.4375 20.0625 C-46.70144531 19.20914063 -45.96539062 18.35578125 -45.20703125 17.4765625 C-44.47871094 16.65929687 -43.75039063 15.84203125 -43 15 C-41.87391088 13.64673888 -40.74875582 12.29269933 -39.625 10.9375 C-37 8 -37 8 -35 7 C-33.24749753 7.07946909 -31.49504104 7.16234988 -29.74389648 7.26757812 C-21.40684947 7.69024211 -16.63844295 6.33878434 -9.5703125 1.5625 C-6.04130862 -0.58279111 -4.00343124 -0.71172111 0 0 Z M-20.125 14.5 C-20.68832031 14.92925781 -21.25164062 15.35851562 -21.83203125 15.80078125 C-23.2246171 16.862923 -24.61273644 17.93091615 -26 19 C-25.01 20.485 -25.01 20.485 -24 22 C-20.09170915 21.4352699 -18.10079777 19.57868029 -15.25 16.9375 C-14.45078125 16.20402344 -13.6515625 15.47054687 -12.828125 14.71484375 C-12.22484375 14.14894531 -11.6215625 13.58304688 -11 13 C-11.33 12.01 -11.66 11.02 -12 10 C-15.33365749 10 -17.5779963 12.53212939 -20.125 14.5 Z M-34.60400391 13.08789062 C-36.27498848 14.73863028 -37.79997113 16.4530479 -39.3125 18.25 C-39.84939453 18.84941406 -40.38628906 19.44882812 -40.93945312 20.06640625 C-43.29803186 22.74917802 -44.85452521 24.56357563 -46 28 C-41.55928248 28 -39.53750766 25.10714428 -36.5 22.1875 C-35.91863281 21.64029297 -35.33726563 21.09308594 -34.73828125 20.52929688 C-32.11950415 18.05733908 -29.53959828 15.55331817 -27 13 C-30.91515631 11.65551359 -30.91515631 11.65551359 -34.60400391 13.08789062 Z M-36 28 C-36.66 29.32 -37.32 30.64 -38 32 C-37.01 32 -36.02 32 -35 32 C-35 30.68 -35 29.36 -35 28 C-35.33 28 -35.66 28 -36 28 Z " fill="#000000" transform="translate(91,36)"/>
<path d="M0 0 C47.08873418 -3.13924895 47.08873418 -3.13924895 58.2989502 6.55618286 C59.94116702 8.12748331 61.48025763 9.74789967 63 11.4375 C63.48895752 11.97310547 63.97791504 12.50871094 64.48168945 13.06054688 C68.73100888 17.88682604 72.49959127 22.59717137 72.5625 29.28515625 C72.2840625 31.12400391 72.2840625 31.12400391 72 33 C70.02 33.99 70.02 33.99 68 35 C68 32.69 68 30.38 68 28 C60.08 28 52.16 28 44 28 C44 20.08 44 12.16 44 4 C30.8 4 17.6 4 4 4 C4 31.72 4 59.44 4 88 C25.12 88 46.24 88 68 88 C68 86.35 68 84.7 68 83 C69.98 83.495 69.98 83.495 72 84 C72 86.64 72 89.28 72 92 C48.24 92 24.48 92 0 92 C0 61.64 0 31.28 0 0 Z M48 8 C48 13.28 48 18.56 48 24 C53.28 24 58.56 24 64 24 C59.31645873 18.35573231 54.3792354 12.9941954 49 8 C48.67 8 48.34 8 48 8 Z " fill="#000000" transform="translate(6,4)"/>
<path d="M0 0 C9.57 0 19.14 0 29 0 C26 4 26 4 23.27270508 4.45410156 C22.19915771 4.4331543 21.12561035 4.41220703 20.01953125 4.390625 C18.85615234 4.37773438 17.69277344 4.36484375 16.49414062 4.3515625 C15.27919922 4.31804688 14.06425781 4.28453125 12.8125 4.25 C11.58595703 4.23195313 10.35941406 4.21390625 9.09570312 4.1953125 C6.06302241 4.14811124 3.03189913 4.08227677 0 4 C0 2.68 0 1.36 0 0 Z " fill="#000000" transform="translate(22,44)"/>
<path d="M0 0 C5.61 0 11.22 0 17 0 C17.33 0.66 17.66 1.32 18 2 C17.67 2.66 17.34 3.32 17 4 C11.39 4 5.78 4 0 4 C0 2.68 0 1.36 0 0 Z " fill="#000000" transform="translate(22,68)"/>
<path d="M0 0 C5.94 0 11.88 0 18 0 C17.34 1.32 16.68 2.64 16 4 C10.72 4 5.44 4 0 4 C0 2.68 0 1.36 0 0 Z " fill="#000000" transform="translate(22,56)"/>
</svg>
